<mxfile host="65bd71144e">
    <diagram id="92PUE27hI0z82dehjiVi" name="Page-1">
        <mxGraphModel dx="1115" dy="626" grid="0" gridSize="10" guides="1" tooltips="1" connect="1" arrows="1" fold="1" page="1" pageScale="1" pageWidth="1654" pageHeight="2336" background="none" math="0" shadow="0">
            <root>
                <mxCell id="0"/>
                <mxCell id="1" parent="0"/>
                <mxCell id="181" style="edgeStyle=orthogonalEdgeStyle;html=1;exitX=0;exitY=1;exitDx=0;exitDy=0;curved=1;strokeWidth=3;" parent="1" source="126" edge="1">
                    <mxGeometry relative="1" as="geometry">
                        <mxPoint x="202.00154383042286" y="255.84615909352033" as="targetPoint"/>
                    </mxGeometry>
                </mxCell>
                <mxCell id="190" style="edgeStyle=orthogonalEdgeStyle;html=1;exitX=0.5;exitY=0;exitDx=0;exitDy=0;curved=1;strokeWidth=3;" parent="1" source="126" edge="1">
                    <mxGeometry relative="1" as="geometry">
                        <mxPoint x="366.55555555555543" y="81.24359469943579" as="targetPoint"/>
                    </mxGeometry>
                </mxCell>
                <mxCell id="192" style="edgeStyle=orthogonalEdgeStyle;html=1;exitX=0;exitY=0.25;exitDx=0;exitDy=0;curved=1;strokeWidth=3;" parent="1" source="126" edge="1">
                    <mxGeometry relative="1" as="geometry">
                        <mxPoint x="184.612569173177" y="113.46581692165796" as="targetPoint"/>
                    </mxGeometry>
                </mxCell>
                <mxCell id="196" style="edgeStyle=orthogonalEdgeStyle;html=1;exitX=0.75;exitY=1;exitDx=0;exitDy=0;entryX=0.5;entryY=0;entryDx=0;entryDy=0;curved=1;strokeWidth=3;" parent="1" source="126" target="194" edge="1">
                    <mxGeometry relative="1" as="geometry"/>
                </mxCell>
                <mxCell id="eKPzWPPOOKFWn6OPrcaA-203" style="edgeStyle=orthogonalEdgeStyle;html=1;exitX=1;exitY=1;exitDx=0;exitDy=0;curved=1;strokeWidth=3;" parent="1" source="126" edge="1">
                    <mxGeometry relative="1" as="geometry">
                        <mxPoint x="580.3350830078125" y="280.781229654948" as="targetPoint"/>
                    </mxGeometry>
                </mxCell>
                <mxCell id="eKPzWPPOOKFWn6OPrcaA-206" style="edgeStyle=orthogonalEdgeStyle;html=1;exitX=1;exitY=0;exitDx=0;exitDy=0;curved=1;strokeWidth=3;" parent="1" source="126" edge="1">
                    <mxGeometry relative="1" as="geometry">
                        <mxPoint x="503.3029563210225" y="92.974404074929" as="targetPoint"/>
                    </mxGeometry>
                </mxCell>
                <mxCell id="eKPzWPPOOKFWn6OPrcaA-233" style="edgeStyle=orthogonalEdgeStyle;html=1;exitX=1;exitY=0.5;exitDx=0;exitDy=0;" parent="1" source="126" edge="1">
                    <mxGeometry relative="1" as="geometry">
                        <mxPoint x="655.8717322716348" y="197.53846153846143" as="targetPoint"/>
                    </mxGeometry>
                </mxCell>
                <mxCell id="eKPzWPPOOKFWn6OPrcaA-269" style="edgeStyle=orthogonalEdgeStyle;html=1;exitX=0.25;exitY=1;exitDx=0;exitDy=0;curved=1;strokeWidth=3;" parent="1" source="126" edge="1">
                    <mxGeometry relative="1" as="geometry">
                        <mxPoint x="268.9486553485576" y="317.0040142352764" as="targetPoint"/>
                    </mxGeometry>
                </mxCell>
                <mxCell id="eKPzWPPOOKFWn6OPrcaA-270" style="edgeStyle=orthogonalEdgeStyle;html=1;exitX=0.5;exitY=1;exitDx=0;exitDy=0;" parent="1" source="126" edge="1">
                    <mxGeometry relative="1" as="geometry">
                        <mxPoint x="366.7692307692307" y="440.08093731219947" as="targetPoint"/>
                    </mxGeometry>
                </mxCell>
                <mxCell id="126" value="Users" style="rounded=0;whiteSpace=wrap;html=1;strokeColor=default;" parent="1" vertex="1">
                    <mxGeometry x="320" y="177" width="92" height="42" as="geometry"/>
                </mxCell>
                <mxCell id="128" value="Username" style="ellipse;whiteSpace=wrap;html=1;" parent="1" vertex="1">
                    <mxGeometry x="142" y="76" width="80" height="40" as="geometry"/>
                </mxCell>
                <mxCell id="130" value="UserID" style="ellipse;whiteSpace=wrap;html=1;" parent="1" vertex="1">
                    <mxGeometry x="326" y="38" width="80" height="40" as="geometry"/>
                </mxCell>
                <mxCell id="eKPzWPPOOKFWn6OPrcaA-232" style="edgeStyle=orthogonalEdgeStyle;html=1;exitX=0;exitY=1;exitDx=0;exitDy=0;entryX=0.5;entryY=0;entryDx=0;entryDy=0;curved=1;strokeWidth=3;" parent="1" source="142" target="eKPzWPPOOKFWn6OPrcaA-221" edge="1">
                    <mxGeometry relative="1" as="geometry"/>
                </mxCell>
                <mxCell id="eKPzWPPOOKFWn6OPrcaA-247" style="edgeStyle=orthogonalEdgeStyle;html=1;exitX=1;exitY=0;exitDx=0;exitDy=0;curved=1;strokeWidth=3;" parent="1" source="142" edge="1">
                    <mxGeometry relative="1" as="geometry">
                        <mxPoint x="1101.5126953125" y="84.69627497746387" as="targetPoint"/>
                    </mxGeometry>
                </mxCell>
                <mxCell id="eKPzWPPOOKFWn6OPrcaA-251" style="edgeStyle=orthogonalEdgeStyle;html=1;exitX=1;exitY=1;exitDx=0;exitDy=0;entryX=0.5;entryY=0;entryDx=0;entryDy=0;curved=1;strokeWidth=3;" parent="1" source="142" target="eKPzWPPOOKFWn6OPrcaA-216" edge="1">
                    <mxGeometry relative="1" as="geometry"/>
                </mxCell>
                <mxCell id="eKPzWPPOOKFWn6OPrcaA-258" style="edgeStyle=orthogonalEdgeStyle;html=1;exitX=0.5;exitY=1;exitDx=0;exitDy=0;curved=1;strokeWidth=3;" parent="1" source="142" edge="1">
                    <mxGeometry relative="1" as="geometry">
                        <mxPoint x="940.6153846153848" y="290.8501680814302" as="targetPoint"/>
                    </mxGeometry>
                </mxCell>
                <mxCell id="eKPzWPPOOKFWn6OPrcaA-259" style="edgeStyle=orthogonalEdgeStyle;html=1;exitX=0.5;exitY=0;exitDx=0;exitDy=0;entryX=0.5;entryY=1;entryDx=0;entryDy=0;curved=1;strokeWidth=3;" parent="1" source="142" target="144" edge="1">
                    <mxGeometry relative="1" as="geometry"/>
                </mxCell>
                <mxCell id="204" style="edgeStyle=none;rounded=1;html=1;exitX=1;exitY=0.5;exitDx=0;exitDy=0;strokeWidth=1;" edge="1" parent="1" source="142" target="201">
                    <mxGeometry relative="1" as="geometry"/>
                </mxCell>
                <mxCell id="142" value="Workouts" style="rounded=0;whiteSpace=wrap;html=1;" parent="1" vertex="1">
                    <mxGeometry x="882" y="176" width="117" height="43" as="geometry"/>
                </mxCell>
                <mxCell id="144" value="UserID" style="ellipse;whiteSpace=wrap;html=1;" parent="1" vertex="1">
                    <mxGeometry x="900.5" y="38" width="80" height="40" as="geometry"/>
                </mxCell>
                <mxCell id="146" value="Date" style="ellipse;whiteSpace=wrap;html=1;" parent="1" vertex="1">
                    <mxGeometry x="1061" y="41" width="80" height="40" as="geometry"/>
                </mxCell>
                <mxCell id="182" value="Email" style="ellipse;whiteSpace=wrap;html=1;strokeColor=default;" parent="1" vertex="1">
                    <mxGeometry x="166" y="249" width="86" height="49" as="geometry"/>
                </mxCell>
                <mxCell id="188" value="Age" style="ellipse;whiteSpace=wrap;html=1;strokeColor=default;" parent="1" vertex="1">
                    <mxGeometry x="218" y="314" width="94" height="47" as="geometry"/>
                </mxCell>
                <mxCell id="194" value="Gender" style="ellipse;whiteSpace=wrap;html=1;strokeColor=default;" parent="1" vertex="1">
                    <mxGeometry x="423" y="332" width="91" height="49" as="geometry"/>
                </mxCell>
                <mxCell id="eKPzWPPOOKFWn6OPrcaA-201" value="Height" style="ellipse;whiteSpace=wrap;html=1;strokeColor=default;" parent="1" vertex="1">
                    <mxGeometry x="456" y="52" width="84" height="42" as="geometry"/>
                </mxCell>
                <mxCell id="eKPzWPPOOKFWn6OPrcaA-204" value="Weight" style="ellipse;whiteSpace=wrap;html=1;strokeColor=default;" parent="1" vertex="1">
                    <mxGeometry x="545" y="278" width="80" height="39" as="geometry"/>
                </mxCell>
                <mxCell id="eKPzWPPOOKFWn6OPrcaA-216" value="" style="ellipse;whiteSpace=wrap;html=1;strokeColor=default;" parent="1" vertex="1">
                    <mxGeometry x="1028" y="294" width="120" height="38" as="geometry"/>
                </mxCell>
                <mxCell id="eKPzWPPOOKFWn6OPrcaA-217" value="Duration" style="text;html=1;align=center;verticalAlign=middle;resizable=0;points=[];autosize=1;strokeColor=none;fillColor=none;" parent="1" vertex="1">
                    <mxGeometry x="1056.5" y="302" width="63" height="26" as="geometry"/>
                </mxCell>
                <mxCell id="eKPzWPPOOKFWn6OPrcaA-219" value="Distance" style="ellipse;whiteSpace=wrap;html=1;strokeColor=default;" parent="1" vertex="1">
                    <mxGeometry x="895" y="294" width="100" height="47" as="geometry"/>
                </mxCell>
                <mxCell id="eKPzWPPOOKFWn6OPrcaA-221" value="Calories" style="ellipse;whiteSpace=wrap;html=1;strokeColor=default;" parent="1" vertex="1">
                    <mxGeometry x="735" y="296" width="120" height="47" as="geometry"/>
                </mxCell>
                <mxCell id="eKPzWPPOOKFWn6OPrcaA-240" style="edgeStyle=orthogonalEdgeStyle;html=1;exitX=1;exitY=0.5;exitDx=0;exitDy=0;entryX=0;entryY=0.5;entryDx=0;entryDy=0;" parent="1" source="eKPzWPPOOKFWn6OPrcaA-234" target="142" edge="1">
                    <mxGeometry relative="1" as="geometry"/>
                </mxCell>
                <mxCell id="eKPzWPPOOKFWn6OPrcaA-234" value="Have" style="rhombus;whiteSpace=wrap;html=1;strokeColor=default;" parent="1" vertex="1">
                    <mxGeometry x="658" y="169.5" width="80" height="57" as="geometry"/>
                </mxCell>
                <mxCell id="eKPzWPPOOKFWn6OPrcaA-264" style="edgeStyle=orthogonalEdgeStyle;html=1;exitX=0.25;exitY=1;exitDx=0;exitDy=0;curved=1;strokeWidth=3;" parent="1" source="eKPzWPPOOKFWn6OPrcaA-262" edge="1">
                    <mxGeometry relative="1" as="geometry">
                        <mxPoint x="1349.0769230769229" y="299.02963961087744" as="targetPoint"/>
                    </mxGeometry>
                </mxCell>
                <mxCell id="eKPzWPPOOKFWn6OPrcaA-268" style="edgeStyle=orthogonalEdgeStyle;html=1;exitX=0.75;exitY=1;exitDx=0;exitDy=0;curved=1;strokeWidth=3;" parent="1" source="eKPzWPPOOKFWn6OPrcaA-262" edge="1">
                    <mxGeometry relative="1" as="geometry">
                        <mxPoint x="1486.6409630408652" y="303.64502422626197" as="targetPoint"/>
                    </mxGeometry>
                </mxCell>
                <mxCell id="eKPzWPPOOKFWn6OPrcaA-262" value="Exercises" style="rounded=0;whiteSpace=wrap;html=1;strokeColor=default;" parent="1" vertex="1">
                    <mxGeometry x="1324" y="177" width="98" height="42" as="geometry"/>
                </mxCell>
                <mxCell id="eKPzWPPOOKFWn6OPrcaA-265" value="ExerciseID" style="ellipse;whiteSpace=wrap;html=1;strokeColor=default;" parent="1" vertex="1">
                    <mxGeometry x="1305" y="299" width="94" height="40" as="geometry"/>
                </mxCell>
                <mxCell id="eKPzWPPOOKFWn6OPrcaA-266" value="Name" style="ellipse;whiteSpace=wrap;html=1;strokeColor=default;" parent="1" vertex="1">
                    <mxGeometry x="1443" y="303" width="103" height="35" as="geometry"/>
                </mxCell>
                <mxCell id="eKPzWPPOOKFWn6OPrcaA-272" style="edgeStyle=orthogonalEdgeStyle;html=1;exitX=0.5;exitY=1;exitDx=0;exitDy=0;" parent="1" source="eKPzWPPOOKFWn6OPrcaA-271" edge="1">
                    <mxGeometry relative="1" as="geometry">
                        <mxPoint x="366.7692307692307" y="600.0809373121995" as="targetPoint"/>
                    </mxGeometry>
                </mxCell>
                <mxCell id="eKPzWPPOOKFWn6OPrcaA-271" value="Have" style="rhombus;whiteSpace=wrap;html=1;strokeColor=default;" parent="1" vertex="1">
                    <mxGeometry x="326" y="440" width="80" height="49" as="geometry"/>
                </mxCell>
                <mxCell id="eKPzWPPOOKFWn6OPrcaA-275" style="edgeStyle=orthogonalEdgeStyle;html=1;exitX=0;exitY=0.5;exitDx=0;exitDy=0;" parent="1" source="eKPzWPPOOKFWn6OPrcaA-273" edge="1">
                    <mxGeometry relative="1" as="geometry">
                        <mxPoint x="314.46153846153834" y="623.5384615384614" as="targetPoint"/>
                    </mxGeometry>
                </mxCell>
                <mxCell id="eKPzWPPOOKFWn6OPrcaA-276" style="edgeStyle=orthogonalEdgeStyle;html=1;exitX=0;exitY=0.5;exitDx=0;exitDy=0;curved=1;strokeWidth=3;" parent="1" source="eKPzWPPOOKFWn6OPrcaA-273" edge="1">
                    <mxGeometry relative="1" as="geometry">
                        <mxPoint x="185.82048152043262" y="623.5384615384614" as="targetPoint"/>
                    </mxGeometry>
                </mxCell>
                <mxCell id="eKPzWPPOOKFWn6OPrcaA-282" style="edgeStyle=orthogonalEdgeStyle;html=1;exitX=0;exitY=1;exitDx=0;exitDy=0;curved=1;strokeWidth=3;" parent="1" source="eKPzWPPOOKFWn6OPrcaA-273" edge="1">
                    <mxGeometry relative="1" as="geometry">
                        <mxPoint x="175.3075984074519" y="755.2091111403245" as="targetPoint"/>
                    </mxGeometry>
                </mxCell>
                <mxCell id="eKPzWPPOOKFWn6OPrcaA-283" style="edgeStyle=orthogonalEdgeStyle;html=1;exitX=1;exitY=1;exitDx=0;exitDy=0;curved=1;strokeWidth=3;" parent="1" source="eKPzWPPOOKFWn6OPrcaA-273" edge="1">
                    <mxGeometry relative="1" as="geometry">
                        <mxPoint x="496.84605994591357" y="795.2091111403245" as="targetPoint"/>
                    </mxGeometry>
                </mxCell>
                <mxCell id="eKPzWPPOOKFWn6OPrcaA-286" style="edgeStyle=orthogonalEdgeStyle;html=1;exitX=0.5;exitY=1;exitDx=0;exitDy=0;curved=1;strokeWidth=3;" parent="1" source="eKPzWPPOOKFWn6OPrcaA-273" edge="1">
                    <mxGeometry relative="1" as="geometry">
                        <mxPoint x="368.7692307692305" y="773.670649601863" as="targetPoint"/>
                    </mxGeometry>
                </mxCell>
                <mxCell id="eKPzWPPOOKFWn6OPrcaA-290" style="edgeStyle=orthogonalEdgeStyle;html=1;exitX=1;exitY=0;exitDx=0;exitDy=0;curved=1;strokeWidth=3;" parent="1" source="eKPzWPPOOKFWn6OPrcaA-273" edge="1">
                    <mxGeometry relative="1" as="geometry">
                        <mxPoint x="550.9486553485576" y="542.9014188326321" as="targetPoint"/>
                    </mxGeometry>
                </mxCell>
                <mxCell id="eKPzWPPOOKFWn6OPrcaA-273" value="Goals" style="rounded=0;whiteSpace=wrap;html=1;strokeColor=default;" parent="1" vertex="1">
                    <mxGeometry x="315" y="601" width="108" height="45" as="geometry"/>
                </mxCell>
                <mxCell id="eKPzWPPOOKFWn6OPrcaA-277" value="UserID" style="ellipse;whiteSpace=wrap;html=1;strokeColor=default;" parent="1" vertex="1">
                    <mxGeometry x="95" y="596" width="92" height="58" as="geometry"/>
                </mxCell>
                <mxCell id="eKPzWPPOOKFWn6OPrcaA-278" value="GoalID" style="ellipse;whiteSpace=wrap;html=1;strokeColor=default;" parent="1" vertex="1">
                    <mxGeometry x="128" y="754" width="100" height="52" as="geometry"/>
                </mxCell>
                <mxCell id="eKPzWPPOOKFWn6OPrcaA-279" value="Name" style="ellipse;whiteSpace=wrap;html=1;strokeColor=default;" parent="1" vertex="1">
                    <mxGeometry x="445" y="792" width="100" height="51" as="geometry"/>
                </mxCell>
                <mxCell id="eKPzWPPOOKFWn6OPrcaA-288" value="Target" style="ellipse;whiteSpace=wrap;html=1;strokeColor=default;" parent="1" vertex="1">
                    <mxGeometry x="319" y="775" width="100" height="45" as="geometry"/>
                </mxCell>
                <mxCell id="eKPzWPPOOKFWn6OPrcaA-289" value="Progress" style="ellipse;whiteSpace=wrap;html=1;strokeColor=default;" parent="1" vertex="1">
                    <mxGeometry x="502" y="497" width="92" height="46" as="geometry"/>
                </mxCell>
                <mxCell id="206" style="edgeStyle=none;rounded=1;html=1;exitX=1;exitY=0.5;exitDx=0;exitDy=0;entryX=0;entryY=0.5;entryDx=0;entryDy=0;strokeWidth=1;" edge="1" parent="1" source="201" target="eKPzWPPOOKFWn6OPrcaA-262">
                    <mxGeometry relative="1" as="geometry"/>
                </mxCell>
                <mxCell id="201" value="And" style="rhombus;whiteSpace=wrap;html=1;" vertex="1" parent="1">
                    <mxGeometry x="1141" y="181" width="73" height="34" as="geometry"/>
                </mxCell>
            </root>
        </mxGraphModel>
    </diagram>
    <diagram id="nMrULd_-dOess38SxF_G" name="Page-2">
        <mxGraphModel dx="667" dy="532" grid="0" gridSize="10" guides="1" tooltips="1" connect="1" arrows="1" fold="1" page="1" pageScale="1" pageWidth="850" pageHeight="1100" math="0" shadow="0">
            <root>
                <mxCell id="0"/>
                <mxCell id="1" parent="0"/>
            </root>
        </mxGraphModel>
    </diagram>
</mxfile>